<!DOCTYPE svg PUBLIC "-//W3C//DTD SVG 1.1//EN" "http://www.w3.org/Graphics/SVG/1.1/DTD/svg11.dtd">
<!-- Uploaded to: SVG Repo, www.svgrepo.com, Transformed by: SVG Repo Mixer Tools -->
<svg width="64px" height="64px" viewBox="0 0 24 24" fill="none" xmlns="http://www.w3.org/2000/svg" stroke="#45a5f5">
<g id="SVGRepo_bgCarrier" stroke-width="0"/>
<g id="SVGRepo_tracerCarrier" stroke-linecap="round" stroke-linejoin="round"/>
<g id="SVGRepo_iconCarrier"> <path d="M14 12H18C18 9.87731 16.7975 8.01958 15 7L12.8694 10.1984M14 12C14 13.1046 13.1046 14 12 14C10.8954 14 10 13.1046 10 12M14 12C14 10.8954 13.1046 10 12 10C10.8954 10 10 10.8954 10 12M10 12H6C6 9.87747 7.20249 8.01983 9 7L11.1306 10.1984M11.1313 13.802L9 17.0002C9.87644 17.635 10.9028 18 11.9998 18C13.097 18 14.1235 17.6349 15 17L12.8687 13.802M21 12C21 16.9706 16.9706 21 12 21C7.02944 21 3 16.9706 3 12C3 7.02944 7.02944 3 12 3C16.9706 3 21 7.02944 21 12Z" stroke="#45a5f5" stroke-width="2" stroke-linecap="round" stroke-linejoin="round"/> </g>
</svg>